# xmcd
#
# Track frame offsets:
#	150
#	18030
#	35485
#	49889
#	64978
#	83340
#	101032
#	115650
#	133101
#	149480
#	165930
#	181763
#	198140
#	212494
#	231259
#	245112
#	263610
#	278172
#	293995
#
# Disc length: 4146 seconds
#
# Revision: 1
# Processed by: cddbd v1.5.2PL0 Copyright (c) Steve Scherf et al.
# Submitted via: audiograbber 1.83.01
#
DISCID=09103013
DTITLE=CDX - 506
DYEAR=2010
DGENRE=
TTITLE0=Darius Rucker - Come Back Song
TTITLE1=Gwyneth Paltrow - Country Strong
TTITLE2=Blaine Larsen - Leavin'
TTITLE3=Crossin' Dixon - Lovin' In The Country
TTITLE4=Carrie Underwood - Mama's Song
TTITLE5=Lady Antebellum - Our Kind Of Love
TTITLE6=Eric Church - Smoke A Little Smoke
TTITLE7=Luke Bryan - Someone Else Calling You Baby
TTITLE8=Troy Olsen - Summer Thing
TTITLE9=Ashley Gearing - What Do You Think About Us
TTITLE10=Clay Walker - Where Do I Go From You
TTITLE11=Brad Wolf - I Make A Difference
TTITLE12=Ben Wasson - Big Boss Man
TTITLE13=Heather Layne - Close Your Eyes
TTITLE14=Ken Domash - Ding Dang Darn It
TTITLE15=Jadi Norris - Home Is Where The Heart Is
TTITLE16=Cory Walker - I Choose Me
TTITLE17=Erica Nicole - Somebody Like Me
TTITLE18=The Stickers - You Put The Woo In Me
EXTD=
EXTT0=
EXTT1=
EXTT2=
EXTT3=
EXTT4=
EXTT5=
EXTT6=
EXTT7=
EXTT8=
EXTT9=
EXTT10=
EXTT11=
EXTT12=
EXTT13=
EXTT14=
EXTT15=
EXTT16=
EXTT17=
EXTT18=
PLAYORDER=
